<?xml version="1.0" encoding="UTF-8"?>
<level>
  <owner>Fistachka</owner>
  <repo>pozvoni3</repo>
  <version>v1.0.12</version>
  <next number="1" owner="Fistachka" repo="trava"/>
  <readme>
    <ru>b4b8f65eaa9d6f7f8f8504cdcbdf8431eadb25144518337fce780cc19e0e38e1</ru>
    <en>39a8d69db56034068464e2c7f06b689db577d41caf19bfc63af9ae5f2f6aca50</en>
  </readme>
  <license>b1b99f5538d1fd3702219bff50c665196dfa42f6ee755c37fe41a6178d6bc6e5</license>
  <exercise number="1">
    <scale>minor</scale>
    <cadenceVariant>harmonic</cadenceVariant>
    <bpm>162</bpm>
    <lowestNote>7</lowestNote>
    <tonalities>2</tonalities>
    <video name="21.mp4" size="1345026" type="video/mp4" volume="0.5">e90ce0ac8baf4b5153066c4688aa3709cb3d8584ab22526e526be787c74dae4e</video>
    <notes>
      <note number="1" values="58" ticks="150" durationTicks="26" ppq="96" velocity="0.764"/>
      <note number="2" values="58" ticks="199" durationTicks="48" ppq="96" velocity="0.772"/>
      <note number="3" values="48" ticks="247" durationTicks="77" ppq="96" velocity="0.827"/>
      <note number="4" values="38" ticks="343" durationTicks="47" ppq="96" velocity="0.772"/>
      <note number="5" values="28" ticks="400" durationTicks="34" ppq="96" velocity="0.827"/>
      <note number="6" values="38" ticks="444" durationTicks="24" ppq="96" velocity="0.827"/>
      <note number="7" values="18" ticks="490" durationTicks="95" ppq="96" velocity="0.827"/>
    </notes>
  </exercise>
  <exercise number="2">
    <scale>minor</scale>
    <cadenceVariant>harmonic</cadenceVariant>
    <bpm>162</bpm>
    <lowestNote>7</lowestNote>
    <tonalities>2</tonalities>
    <video name="22.mp4" size="1224122" type="video/mp4" volume="0.5">755325db0f0579479091a91ecdff78d30aa4415c047f397c99509e85a3c103eb</video>
    <notes>
      <note number="1" values="18" ticks="271" durationTicks="37" ppq="96" velocity="0.764"/>
      <note number="2" values="28" ticks="310" durationTicks="32" ppq="96" velocity="0.776"/>
      <note number="3" values="38" ticks="349" durationTicks="29" ppq="96" velocity="0.827"/>
      <note number="4" values="18" ticks="389" durationTicks="24" ppq="96" velocity="0.778"/>
      <note number="5" values="38" ticks="417" durationTicks="25" ppq="96" velocity="0.827"/>
      <note number="6" values="58" ticks="450" durationTicks="24" ppq="96" velocity="0.827"/>
      <note number="7" values="78" ticks="487" durationTicks="50" ppq="96" velocity="0.827"/>
      <note number="8" values="68" ticks="583" durationTicks="62" ppq="96" velocity="0.827"/>
    </notes>
  </exercise>
  <exercise number="3">
    <scale>minor</scale>
    <cadenceVariant>harmonic</cadenceVariant>
    <bpm>162</bpm>
    <lowestNote>7</lowestNote>
    <tonalities>2</tonalities>
    <video name="23.mp4" size="1265383" type="video/mp4" volume="0.5">ec251b339eceed2a012b3f9bd01a215a2b425bd319b8272907e0fc1b8bdbde3b</video>
    <notes>
      <note number="1" values="68" ticks="262" durationTicks="20" ppq="96" velocity="0.764"/>
      <note number="2" values="68" ticks="306" durationTicks="36" ppq="96" velocity="0.772"/>
      <note number="3" values="58" ticks="349" durationTicks="47" ppq="96" velocity="0.827"/>
      <note number="4" values="48" ticks="397" durationTicks="45" ppq="96" velocity="0.772"/>
      <note number="5" values="38" ticks="455" durationTicks="30" ppq="96" velocity="0.827"/>
      <note number="6" values="48" ticks="490" durationTicks="30" ppq="96" velocity="0.827"/>
      <note number="7" values="28" ticks="529" durationTicks="147" ppq="96" velocity="0.827"/>
    </notes>
  </exercise>
  <exercise number="4">
    <scale>minor</scale>
    <cadenceVariant>harmonic</cadenceVariant>
    <bpm>162</bpm>
    <lowestNote>7</lowestNote>
    <tonalities>2</tonalities>
    <video name="24.mp4" size="1125508" type="video/mp4" volume="0.5">93e4efc8c11191c806534253180f13cbc9c45dea297fd536a34c238a62fcc057</video>
    <notes>
      <note number="1" values="7" ticks="149" durationTicks="32" ppq="96" velocity="0.764"/>
      <note number="2" values="18" ticks="184" durationTicks="32" ppq="96" velocity="0.772"/>
      <note number="3" values="28" ticks="229" durationTicks="42" ppq="96" velocity="0.827"/>
      <note number="4" values="7" ticks="384" durationTicks="49" ppq="96" velocity="0.772"/>
      <note number="5" values="28" ticks="433" durationTicks="39" ppq="96" velocity="0.827"/>
      <note number="6" values="48" ticks="481" durationTicks="24" ppq="96" velocity="0.827"/>
      <note number="7" values="68" ticks="520" durationTicks="66" ppq="96" velocity="0.827"/>
      <note number="8" values="58" ticks="606" durationTicks="108" ppq="96" velocity="0.827"/>
    </notes>
  </exercise>
  <exercise number="5">
    <scale>minor</scale>
    <cadenceVariant>harmonic</cadenceVariant>
    <bpm>162</bpm>
    <lowestNote>7</lowestNote>
    <tonalities>2</tonalities>
    <video name="25.mp4" size="986195" type="video/mp4" volume="0.5">ec25adfacd4208172b9c06aa634ada4988779eef97acaa0a408c9f330c613aba</video>
    <notes>
      <note number="1" values="58" ticks="194" durationTicks="18" ppq="96" velocity="0.764"/>
      <note number="2" values="58" ticks="231" durationTicks="22" ppq="96" velocity="0.772"/>
      <note number="3" values="48" ticks="265" durationTicks="47" ppq="96" velocity="0.827"/>
      <note number="4" values="38" ticks="331" durationTicks="36" ppq="96" velocity="0.772"/>
      <note number="5" values="28" ticks="372" durationTicks="28" ppq="96" velocity="0.827"/>
      <note number="6" values="38" ticks="412" durationTicks="24" ppq="96" velocity="0.827"/>
      <note number="7" values="18" ticks="454" durationTicks="95" ppq="96" velocity="0.827"/>
    </notes>
  </exercise>
  <exercise number="6">
    <scale>minor</scale>
    <cadenceVariant>harmonic</cadenceVariant>
    <bpm>162</bpm>
    <lowestNote>7</lowestNote>
    <tonalities>2</tonalities>
    <video name="26.mp4" size="1121997" type="video/mp4" volume="0.5">927b1f73962d6b23c1a72888f679d09660204ef2f1e60747ea4fe5e71a36ddb2</video>
    <notes>
      <note number="1" values="18" ticks="265" durationTicks="37" ppq="96" velocity="0.764"/>
      <note number="2" values="28" ticks="309" durationTicks="38" ppq="96" velocity="0.772"/>
      <note number="3" values="38" ticks="357" durationTicks="42" ppq="96" velocity="0.827"/>
      <note number="4" values="18" ticks="443" durationTicks="34" ppq="96" velocity="0.772"/>
      <note number="5" values="38" ticks="480" durationTicks="31" ppq="96" velocity="0.827"/>
      <note number="6" values="58" ticks="518" durationTicks="39" ppq="96" velocity="0.827"/>
      <note number="7" values="78" ticks="565" durationTicks="47" ppq="96" velocity="0.827"/>
      <note number="8" values="68" ticks="654" durationTicks="99" ppq="96" velocity="0.827"/>
    </notes>
  </exercise>
  <exercise number="7">
    <scale>minor</scale>
    <cadenceVariant>harmonic</cadenceVariant>
    <bpm>162</bpm>
    <lowestNote>18</lowestNote>
    <tonalities>2</tonalities>
    <video name="27.mp4" size="1094961" type="video/mp4" volume="0.5">5d308c15219000a3e58f4aefc0e8b9167c57f79fc722845af6cc915725486aaa</video>
    <notes>
      <note number="1" values="68" ticks="320" durationTicks="22" ppq="96" velocity="0.764"/>
      <note number="2" values="68" ticks="357" durationTicks="23" ppq="96" velocity="0.772"/>
      <note number="3" values="188" ticks="392" durationTicks="45" ppq="96" velocity="0.827"/>
      <note number="4" values="188" ticks="468" durationTicks="38" ppq="96" velocity="0.772"/>
      <note number="5" values="78" ticks="512" durationTicks="54" ppq="96" velocity="0.827"/>
      <note number="6" values="68" ticks="575" durationTicks="38" ppq="96" velocity="0.827"/>
      <note number="7" values="58" ticks="626" durationTicks="26" ppq="96" velocity="0.827"/>
      <note number="8" values="58" ticks="676" durationTicks="90" ppq="96" velocity="0.827"/>
    </notes>
  </exercise>
  <exercise number="8">
    <scale>minor</scale>
    <cadenceVariant>harmonic</cadenceVariant>
    <bpm>162</bpm>
    <lowestNote>7</lowestNote>
    <tonalities>2</tonalities>
    <video name="28.mp4" size="924428" type="video/mp4" volume="0.5">587fcfe2c274a33dc2b01034afd8bbe724648f5e02d5c7a0bf3144dd1ba3c3e0</video>
    <notes>
      <note number="1" values="58" ticks="54" durationTicks="17" ppq="96" velocity="0.764"/>
      <note number="2" values="58" ticks="92" durationTicks="23" ppq="96" velocity="0.772"/>
      <note number="3" values="68" ticks="129" durationTicks="26" ppq="96" velocity="0.827"/>
      <note number="4" values="68" ticks="190" durationTicks="26" ppq="96" velocity="0.772"/>
      <note number="5" values="58" ticks="226" durationTicks="27" ppq="96" velocity="0.827"/>
      <note number="6" values="48" ticks="270" durationTicks="38" ppq="96" velocity="0.827"/>
      <note number="7" values="38" ticks="354" durationTicks="26" ppq="96" velocity="0.827"/>
      <note number="8" values="38" ticks="417" durationTicks="90" ppq="96" velocity="0.827"/>
    </notes>
  </exercise>
  <exercise number="9">
    <scale>chromaticminor</scale>
    <cadenceVariant>harmonic</cadenceVariant>
    <bpm>162</bpm>
    <lowestNote>7</lowestNote>
    <tonalities>2</tonalities>
    <video name="29.mp4" size="1149889" type="video/mp4" volume="0.5">a69f5a680b1488a4f197d3311f19c0906d9a97c1f14a921a992ee07234f55e70</video>
    <notes>
      <note number="1" values="28" ticks="155" durationTicks="40" ppq="96" velocity="0.764"/>
      <note number="2" values="28" ticks="217" durationTicks="28" ppq="96" velocity="0.772"/>
      <note number="3" values="38" ticks="251" durationTicks="28" ppq="96" velocity="0.827"/>
      <note number="4" values="28" ticks="313" durationTicks="27" ppq="96" velocity="0.772"/>
      <note number="5" values="198" ticks="347" durationTicks="29" ppq="96" velocity="0.827"/>
      <note number="6" values="28" ticks="407" durationTicks="32" ppq="96" velocity="0.827"/>
      <note number="7" values="58" ticks="442" durationTicks="133" ppq="96" velocity="0.827"/>
    </notes>
  </exercise>
</level>
